<svg xmlns="http://www.w3.org/2000/svg" viewBox="0 0 126.7 144.7" xml:space="preserve"><path fill="#212938" d="M31.5 14.6 11.9 127.1c-.3 1.6-.3 3-.1 4 .1.4.3.7.6.9.7.5 2 .7 3.6.4l98.1-11.1c.8-.1 1.5-.2 2-.4 1-.3 1.4-1.4 1-2.3-.4-1-1.1-2-1.9-3.2L36.8 14.1l-.1-.1-2.3-2.4c-.1-.1-.2-.2-.4-.3l-1-.6-.5.7c-.1.1-.2.3-.3.5-.2.7-.5 1.7-.7 2.7m-.1-10.1c2.5-.3 5.4 1.7 8.8 5.9l78.4 101.4c2 2.5 3.3 4.9 3.9 7.2.4 1.4.4 2.6.2 3.5-.2 1.4-1 2.5-2.2 3.5-1.2.9-2.8 1.4-4.8 1.6l-98.1 11.1c-1.9.2-3.7.1-5.3-.5s-2.9-1.5-3.9-2.8c-.7-.9-1.3-2-1.6-3.4-.6-2.2-.7-4.7-.2-7.6L26.4 12c.4-2.2 1-4 1.9-5.3.8-1.4 1.9-2.1 3.1-2.2"/><linearGradient id="a" gradientUnits="userSpaceOnUse" x1="12309.197" y1="-20092.238" x2="13947.597" y2="-20092.238" gradientTransform="matrix(.00792 .0752 -.08696 .00916 -1791.971 -730.756)"><stop offset="0" style="stop-color:#ffe81a"/><stop offset="1" style="stop-color:#ffd400"/></linearGradient><path fill="url(#a)" d="m42.7 7.8 78.4 101.5c4.4 5.7 6.2 10.7 5.4 15.2-.8 4.5-3.9 7-9.4 7.6l-98 11.1c-5.5.6-9.8-1.1-12.8-5.1-3.1-4-4.2-9.2-3.1-15.5L22.8 10.1c.5-3.1 1.5-5.5 2.8-7.2C26.9 1.2 28.5.2 30.3 0s3.8.3 5.9 1.7c2.2 1.3 4.4 3.4 6.5 6.1M26.5 12 6.8 124.5c-.5 2.9-.4 5.5.2 7.6.4 1.4.9 2.5 1.6 3.4 1 1.3 2.3 2.2 3.9 2.8s3.4.7 5.3.5l98.1-11.1c2-.2 3.6-.8 4.8-1.6 1.2-.9 1.9-2.1 2.2-3.5.2-1 .1-2.2-.2-3.5-.6-2.2-1.9-4.6-3.9-7.2L40.2 10.4c-3.3-4.3-6.2-6.2-8.8-5.9-1.2.1-2.2.8-3.1 2.2-.8 1.3-1.4 3.1-1.8 5.3"/><path fill="#FFD400" d="m33.2 10.8.9.6.3.3 2.3 2.4.1.1 78.3 101.3c.9 1.2 1.5 2.2 2 3.1.4.8.1 1.8-.7 2.2-.6.3-1.3.5-2.3.6L16 132.5c-1.3.1-2.4.1-3.2-.2-.5-.2-.9-.7-1-1.3-.2-1.1-.2-2.4.1-4L31.6 14.6c.2-1.1.4-2 .8-2.8.1-.1.2-.3.3-.4l.5-.6"/><path fill="#8C6E00" d="M22.8 10.1 3.2 122.6c-1.1 6.3-.1 11.4 3.1 15.5 3.1 4 7.4 5.7 12.8 5.1l98-11.1c1.6-.2 3-.5 4.2-1.1l-2.4 1.1c-1.3.7-2.9 1.1-4.6 1.3l-98 11.1c-5.5.6-9.8-1.1-12.9-5.1-3.1-4.1-4.1-9.2-3-15.5L20 11.5c.8-4.9 2.6-8.1 5.3-9.5L28.1.7c-2.6 1.4-4.4 4.5-5.3 9.4"/><path fill="#212938" d="m86.8 86.6-18.4 34.6 39.4-4.2zM66.6 95.8l-4.5-7c0-.3 0-.7-.1-1l-3.2-13c-.2-.7-.5-1.3-1-1.7-.5-1.9-1.6-3.8-3.4-4.9-1.2-.8-2.6-1.1-3.9-1.1-.4-.3-.8-.4-1.3-.5l-12.7-2.2c-1.1-.2-2.2.1-3 .8-.4.3-.8.6-1.2 1l-7.6 10.4c-1.2 1.7-.8 4.1.9 5.4 1.8 1.3 4.2.9 5.5-.8l6.3-8.7 4.1.7L35 83.4c-.6 1-.8 2.5-.7 4.1-.6.7-1 1.7-1 2.8V104l-6.7 9.8c-1.2 1.7-.7 4 1 5.2 1.7 1.2 4 .7 5.2-1l7.1-10.3c.4-.6.6-1.2.6-1.9.2-.5.3-1 .3-1.6v-9.3c1 .2 2.1.1 3.1-.1l4.9 7.7-5.5 10.5c-1.1 2-.4 4.5 1.6 5.5 1.9 1 4.4.2 5.4-1.8l6.5-12.4c.2-.4.3-.7.4-1.1v-.1c0-.2.1-.4.1-.6v-.8c0-.1 0-.2-.1-.3 0-.2-.1-.4-.1-.5-.2-.5-.4-.9-.7-1.3l-6.3-9.8 2.8-4.3 1 4.2c0 .2.1.4.2.5 0 .4.1.8.4 1.1L60 100c.9 1.4 3.1 1.6 5 .4 1.8-1.1 2.5-3.2 1.6-4.6z"/><path fill="#212938" d="m87.1 108.4-.3-.6c-1.1-2.2-2.7-4-4.8-5.2l-6-3.7-3.2 5.2-45.4-27.6c-.2-.1-.5-.1-.6.2-.1.2-.1.5.2.6l45.4 27.6-3.4 5.5 6.3 3.9c1.9 1.2 4.1 1.7 6.3 1.5l1.5-.1c3.5-.3 5.6-4.1 4-7.3z"/><circle fill="#212938" cx="61.8" cy="61.8" r="6.2"/></svg>