<svg xmlns="http://www.w3.org/2000/svg" viewBox="0 0 187.4 163" xml:space="preserve"><path fill="#4F4F4F" d="m138.8 42.1 14 103-3.3-.4-14.4-102.6z"/><path fill="#919191" d="m143.7 39.1 13.9 104-4.8 2-14-103z"/><path fill="#CBCBCB" d="m135.1 42.1 4.8-3h3.8l-4.9 3z"/><path fill="#686868" d="m66.8 21.8-24 119-8 2.2L60.5 18.3z"/><path fill="#CFCFCF" d="M58.3 18.3h2.2L34.8 143l-2.5-1.3z"/><path fill="#4F4F4F" d="m55.1 48.5 20.1 85.1h-2.4L52.9 48.5z"/><path fill="#CBCBCB" d="m52.9 48.5 6.1-2.9h2.3l-6.2 2.9z"/><path fill="#686868" d="m61.3 45.6 20 86.8-6.1 1.2-20.1-85.1z"/><path fill="#434343" d="m144.8 111.4 1.2 8.4-72.9-6.9-1.4-7z"/><path fill="#C4C4C4" d="m73.3 104.8 71.3 5.1.2 1.5-73.1-5.5z"/><path fill="#434343" d="m126.4 130.4-.1.4-85.4-10.7-.2-.2z"/><path fill="#C8C8C8" d="m42.4 111.3 85.6 8.4-1.6 10.7-85.7-10.5z"/><path fill="#686868" d="M153.4 12 132 157.2l-6.4 3.1 22.6-150z"/><path fill="#CFCFCF" d="m144.8 10.8 3.4-.5-22.6 150-3.7-.9z"/><path fill="#FFF" d="m153.9 0-3 21.2L50.8 33l3.3-17z"/><path fill="#FC7309" d="M148.2 21.6 136.4 2.8 153.9 0l-3 21.2zM117.6 5.8l9.1-1.4 11.1 18.4-8.2.9-1.6.2zM108.7 7.2c.1.1 9.8 17.8 9.8 17.8h-.4l-8.5 1-9.3-17.5 8.4-1.3zM100.9 27.1l-8.5 1-8.2-16.9 4.8-.8 3-.5zM76.7 12.4 84.6 29l-5.8.7-2.3.3-7.1-16.5zM69.4 30.8l-5.2.6-2.3.3-6.3-15.9 3.9-.7 2.8-.4z"/><path fill="#5B5B5B" d="M153.7.2 150.8 21 51 32.7l3.2-16.6L153.7.2m.2-.2L54.1 16l-3.3 17L151 21.3 153.9 0z"/><linearGradient id="e" gradientUnits="userSpaceOnUse" x1="87.032" y1="0" x2="87.032" y2="34.008" gradientTransform="matrix(-1 0 0 1 189.936 0)"><stop offset="0" style="stop-color:#6b2906"/><stop offset="1" style="stop-color:#000"/></linearGradient><path fill="url(#e)" d="m64.2 31.4 5.2-.6 7.1-.8 2.3-.3 30.8-3.6 8.5-1 11.5-1.4 8.2-.9 13.1-1.6 3-21.2 1.1 1-3 21.3L51.9 34l-1.1-1z"/><g><path fill="#FFF" d="m146.3 51.6-3.3 23-101 .2 3.6-18z"/><path fill="#FC7309" d="m146.3 51.5-18 .9 11.9 22.2 2.8-.1zM118.6 52.9l11.1 21.7h-10l-10.5-21.2zM110.2 74.7 100.4 54l-8.8.4 9.4 20.3zM92.2 74.6l-8.6-19.8-8.1.4 8.2 19.5zM75.8 74.7 68 55.6l-7.4.3 7.1 18.8zM60.6 74.7l-6.9-18.4-6.9.4 6.3 18z"/><linearGradient id="f" gradientUnits="userSpaceOnUse" x1="95.181" y1="51.575" x2="95.181" y2="75.575" gradientTransform="matrix(-1 0 0 1 189.936 0)"><stop offset="0" style="stop-color:#6b2906"/><stop offset="1" style="stop-color:#201d1a"/><stop offset="1" style="stop-color:#000"/></linearGradient><path fill="url(#f)" d="m147.5 52.8-1.2-1.2-3.3 22.9-101 .2 1.1.9h100.8z"/><path fill="#020202" d="m146.1 51.7-3.3 22.7-100.6.1 3.5-17.6 100.4-5.2m.2-.2L45.6 56.7l-3.6 18 101-.2 3.3-23z"/></g><g><path fill="#FFF" d="m142.1 79.9-101.4-1-3.6 18.7 101.6 6.1z"/><path fill="#FC730A" d="m142.1 79.9-18.1-.2 11.8 23.8 2.9.2zM125.6 102.9l-11.3-23.3-9.4-.1 10.3 22.8zM95.9 79.4l9.7 22.3-9.4-.5L87 79.3M87.7 100.7l-8.5-21.4-8.3-.1 8.1 20.9zM71.3 99.7l-7.9-20.6L56 79l7.1 20.2zM55.9 98.7l-6.8-19.8H42l6.5 19.4z"/><path d="m40.9 79.1 101 1-3.4 23.4-101.1-6.1 3.5-18.3m-.2-.2-3.6 18.7 101.6 6.1 3.4-23.8-101.4-1z"/><linearGradient id="g" gradientUnits="userSpaceOnUse" x1="99.856" y1="79.904" x2="99.856" y2="104.298" gradientTransform="matrix(-1 0 0 1 189.936 0)"><stop offset="0" style="stop-color:#6b2906"/><stop offset="1" style="stop-color:#201d1a"/><stop offset="1" style="stop-color:#000"/></linearGradient><path fill="url(#g)" d="m142.1 79.9.9 1-3.2 23.4-101.4-6-1.3-.7 101.6 6.1z"/></g><g><path fill="#8C3D07" d="M140.5 8.2c1.2 0 2.3.5 3 1.4.8.9 1.1 2 .9 3.2l-12.6 80.8c-.3 2-2 3.4-3.9 3.4h-.2L49 92.3c-1.2-.1-2.2-.6-2.9-1.6-.7-.9-1-2.1-.7-3.3l13.8-63.7c.4-1.6 1.6-2.8 3.3-3.1l77.6-12.4c-.1.1.2 0 .4 0m0-1c-.3 0-.5 0-.8.1L62.1 19.7c-2 .3-3.7 1.9-4.1 3.9L44.2 87.3c-.6 3 1.5 5.9 4.6 6l78.7 4.7h.3c2.4 0 4.6-1.8 4.9-4.2L145.4 13c.5-3.1-1.9-5.8-4.9-5.8z"/><path fill="#FFF" d="m127.1 96.6-78.7-4.7c-1.3-.1-2.5-.7-3.3-1.8-.8-1-1.1-2.4-.8-3.7L58 22.9c.4-1.8 1.8-3.2 3.7-3.5L139.3 7c.2 0 .5-.1.7-.1 1.3 0 2.5.6 3.4 1.6.9 1 1.2 2.3 1 3.6l-12.6 80.8c-.3 2.2-2.2 3.8-4.4 3.8 0-.1-.2-.1-.3-.1z"/><path fill="#CC5605" d="M140 7.4c1.2 0 2.3.5 3 1.4.8.9 1.1 2 .9 3.2l-12.6 80.8c-.3 2-2 3.4-3.9 3.4h-.2l-78.7-4.7c-1.2-.1-2.2-.6-2.9-1.6-.7-.9-1-2.1-.7-3.3L58.5 23c.4-1.6 1.6-2.8 3.3-3.1l77.6-12.4c.2-.1.4-.1.6-.1m0-1c-.3 0-.5 0-.8.1L61.6 18.9c-2 .3-3.7 1.9-4.1 3.9L43.7 86.4c-.6 3 1.5 5.9 4.6 6l78.7 4.7h.3c2.4 0 4.6-1.8 4.9-4.2l12.6-80.8c.6-3-1.8-5.7-4.8-5.7z"/></g><g><path d="m65.9 48.5 2.1-.1h.9c.2 0 .4.1.5.3l.3.6c.1.3.1.6 0 .9-.1.4-.2.7-.4 1-.2.3-.4.5-.7.7.3.1.5.4.6.7.1.3.1.7 0 1.2-.1.4-.2.7-.4 1-.2.3-.4.6-.6.8-.2.2-.5.3-.8.4-.2 0-.6.1-1.3.1h-1.8l1.6-7.6zm.8 1.2-.3 1.8h1.5c.2 0 .4-.1.5-.3l.3-.6V50c-.1-.1-.2-.2-.4-.3h-1.6zm-.5 3.1-.4 2.1h1c.4 0 .6 0 .7-.1.2 0 .3-.1.5-.3.1-.2.2-.4.3-.7v-.6c0-.2-.1-.3-.3-.3-.1-.1-.4-.1-.9-.1h-.9zM69.9 56.1l1.5-7.7h1.1l-.6 3h2.2l.6-3.1h1.1L74.2 56h-1.1l.6-3.4h-2.2l-.6 3.4-1 .1zM76.8 48.2h1l-1 5.2 3.2-5.3h1.1L79.8 56h-1.1l.9-5.2-3.1 5.2h-1.1l1.4-7.8zM81 56l1.4-7.9h1.7l.1 5.4 2-5.5 1.7-.1-1.4 8h-1.1l1.1-6.3-2.3 6.3h-1.1v-6.2L82 55.9l-1 .1zM92.9 55.8h-1.3l-.2-1.8h-2.3l-.8 1.8h-1.2l3.7-8.1H92l.9 8.1zm-1.6-3.2-.3-3-1.3 3h1.6zM93.6 55.8l1.4-8.1h1.2l-.6 3.2 2.4-.1.6-3.2h1.2l-1.4 8.2h-1.2l.6-3.6h-2.4l-.6 3.6h-1.2zM101.1 47.5h1.2l-.9 5.5 3.4-5.6h1.2l-1.4 8.3h-1.2l.9-5.4-3.4 5.4h-1.2l1.4-8.2zM105.8 55.6l1.4-8.3 4.7-.1-.2 1.4-3.4.1-.3 1.8 3.2-.1-.2 1.4-3.2.1-.4 2.3 3.5-.1-.2 1.4-4.9.1zM112.5 53.4l.4-4.3.3-2h1.3l-.3 2-1 4.3h-.7zm-.6 2.2.3-1.6h1.2l-.3 1.6h-1.2zM115.5 53.3l.4-4.3.3-2h1.3l-.3 2-1 4.3h-.7zm-.6 2.2.3-1.6h1.2l-.3 1.6h-1.2zM118.6 53.3l.4-4.3.3-2h1.4l-.3 2-1 4.3h-.8zm-.7 2.2.3-1.6h1.3l-.3 1.6h-1.3zM70.2 67l1.2-6.6h1.5c.6 0 .9 0 1.1.1.2.1.4.3.5.6.1.3.1.8 0 1.3-.1.4-.2.7-.3 1-.2.3-.3.5-.5.7-.2.2-.4.3-.5.3-.2.1-.6.1-1 .1h-.6l-.5 2.5h-.9zm1.9-5.4-.3 1.9h.5c.4 0 .6 0 .8-.1.1-.1.3-.2.3-.3.1-.1.2-.3.2-.5V62c-.1-.2-.2-.3-.3-.3h-.7l-.5-.1zM78.1 67.1h-1l-.1-1.5h-1.9l-.7 1.5h-1l3-6.6h1l.7 6.6zm-1.3-2.6-.2-2.5-1.1 2.5h1.3zM79.8 60.5h3.5l-.2 1.1h-2.6l-.3 1.6h1.3c.4 0 .6.1.9.2.2.1.4.3.5.7.1.3.1.7 0 1.2s-.2.8-.5 1.2c-.2.3-.5.5-.7.7-.2.1-.6.2-.9.2h-2.2l1.2-6.9zm-.1 5.5h.9c.3 0 .5 0 .6-.1.1 0 .3-.1.4-.3.1-.1.2-.3.2-.5.1-.3 0-.5-.1-.7-.1-.1-.4-.2-.8-.2h-1l-.2 1.8zM83.8 63.8c.1-.7.3-1.3.5-1.7.2-.3.4-.7.6-.9.2-.3.5-.5.7-.6.3-.2.7-.3 1.1-.3.7 0 1.2.3 1.6.9.3.6.4 1.5.2 2.6s-.6 2-1.1 2.6c-.5.6-1.2.9-1.9.9s-1.2-.3-1.5-.9c-.4-.6-.4-1.5-.2-2.6zm1 0c-.1.8-.1 1.3.1 1.7.2.4.5.6.9.6s.7-.2 1.1-.6c.3-.4.6-1 .7-1.8.1-.8.1-1.4-.1-1.7-.2-.4-.5-.6-.9-.6s-.8.2-1.1.6c-.4.4-.6 1-.7 1.8zM89.7 67.2l1-5.7h-1.5l.2-1.1h3.9l-.2 1.2h-1.5l-1 5.7-.9-.1zM96.9 67.3h-1.1l-.2-1.6h-2l-.6 1.6h-1.1l3.1-6.9h1.1l.8 6.9zm-1.4-2.7-.2-2.6-1.1 2.6h1.3zM98.7 60.4h1l-.5 2.9h.8c.2-.9.6-1.6 1-2.2.5-.6 1.1-.9 1.8-.9s1.2.3 1.5.9c.3.6.4 1.5.2 2.7-.1.8-.3 1.4-.6 1.9s-.6 1-1 1.2c-.4.3-.8.4-1.3.4s-.9-.1-1.2-.3c-.3-.2-.5-.6-.6-1.1-.1-.5-.2-1-.1-1.6h-.8l-.5 2.9h-1l1.3-6.8zm2.3 3.5c-.1.8-.1 1.4 0 1.8.2.4.4.6.9.6.4 0 .8-.2 1.1-.6.3-.4.5-1 .6-1.9.1-.8.1-1.4-.1-1.8-.2-.4-.5-.6-.8-.6-.4 0-.7.2-1 .6-.4.4-.6 1-.7 1.9zM105.9 67.4l1-5.9h-1.6l.2-1.2h4.2l-.2 1.2h-1.6l-1 5.9h-1zM59.4 71.3l3 .1-.2 1.1h-2.1l-1 5.4h-.9l1.2-6.6zM65.2 78.1h-1l-.1-1.5-1.8-.1-.6 1.5h-.9l3-6.5h1l.4 6.6zm-1.1-2.7-.2-2.5-1.1 2.4 1.3.1zM68.9 75.7l.8.4c-.3.7-.6 1.3-1 1.6-.4.3-.8.5-1.3.5-.6 0-1-.3-1.3-1-.3-.6-.3-1.4-.1-2.5.2-1.1.6-1.9 1.1-2.5.5-.6 1.1-.9 1.7-.9.6 0 1 .3 1.2.7.2.3.2.7.2 1.2l-1 .3c0-.3-.1-.6-.2-.8-.1-.2-.3-.3-.6-.3s-.6.2-.9.5c-.3.3-.5.9-.6 1.7-.2.8-.2 1.4 0 1.8.1.4.4.5.7.6.2 0 .5-.1.7-.3.3-.1.5-.5.6-1zM71 78.3l1-5.6h-1.4l.2-1.1 3.7.1-.2 1.1h-1.4l-1 5.6-.9-.1zM77.8 78.5h-1l-.1-1.6-1.9-.1-.7 1.5h-1l3-6.7h1l.7 6.9zm-1.3-2.8-.2-2.5-1.1 2.5h1.3zM78.3 78.5l1.2-6.8H81c.6 0 1 .1 1.1.1.3.1.4.3.6.7.1.3.1.8 0 1.3-.1.4-.2.8-.4 1.1-.2.3-.3.5-.5.7-.2.2-.4.3-.6.3-.2.1-.6.1-1 .1h-.6l-.5 2.6-.8-.1zm2-5.6-.3 1.9h.5c.4 0 .6 0 .8-.1.1-.1.3-.2.4-.3.1-.2.2-.3.2-.5v-.6c-.1-.2-.2-.3-.3-.3-.1 0-.3-.1-.7-.1h-.6zM84 71.8l3.6.1-.1 1.1h-2.7l-.3 1.6h1.3c.4 0 .7.1.9.2.2.1.4.4.5.7.1.3.1.7 0 1.2s-.2.9-.5 1.2c-.2.3-.5.6-.7.7-.2.1-.6.2-1 .2l-2.3-.1 1.3-6.9zm0 5.7h1.7c.1 0 .3-.1.4-.3.1-.1.2-.3.2-.6.1-.3 0-.6-.1-.7-.1-.2-.4-.2-.8-.2h-1l-.4 1.8zM91.9 79h-1.1l-.2-1.6-2-.1-.6 1.5h-1.1l3.1-6.9h1.1l.8 7.1zm-1.4-2.9-.2-2.6-1.1 2.6h1.3zM93.7 72h1l-.8 4.7 2.9-4.6h1l-1.2 7h-1l.8-4.6-2.9 4.5h-1l1.2-7zm2.9-1.7h.5c-.1.4-.3.8-.5 1-.2.2-.5.4-.8.4-.3 0-.5-.1-.7-.4-.1-.2-.2-.6-.2-1h.5c0 .2 0 .4.1.5.1.1.2.2.4.2s.3-.1.5-.2c0-.1.1-.3.2-.5zM98.7 79.2l1-5.9h-1.5l.2-1.2 4.1.1-.2 1.2h-1.5l-1 5.9-1.1-.1zM102 79.3l1.2-7.1 3.9.1-.2 1.2-2.8-.1-.3 1.6 2.6.1-.2 1.2-2.6-.1-.3 1.9 2.9.1-.2 1.2-4-.1zM106.9 79.5l1.2-7.2h1.7c.7 0 1.1.1 1.3.1.3.1.5.4.7.7.1.4.2.8.1 1.4-.1.4-.2.8-.4 1.1-.2.3-.4.5-.6.7-.2.2-.4.3-.6.3-.3.1-.7.1-1.1.1h-.7l-.4 2.7-1.2.1zm2.1-6-.3 2h.6c.4 0 .7 0 .9-.1.2-.1.3-.2.4-.3.1-.2.2-.3.2-.6s0-.5-.1-.7c-.1-.2-.2-.3-.4-.3-.1 0-.4-.1-.8-.1l-.5.1zM113.1 72.4h1.1l-.5 2.9h1.5c.4 0 .7.1 1 .2.3.1.5.4.6.8.1.4.2.8.1 1.3s-.2.9-.5 1.3-.5.6-.8.7c-.3.1-.6.2-1.1.1l-2.6-.1 1.2-7.2zm.1 6h1.8c.1 0 .3-.1.4-.3.1-.2.2-.3.3-.6.1-.3 0-.6-.1-.7-.1-.2-.4-.3-.9-.3h-1.1l-.4 1.9zm5.1-5.9h1.1l-1.2 7.3h-1.1l1.2-7.3z"/><path fill="red" d="M50.7 85.3c.1-.7.3-1.2.5-1.7l.6-.9c.2-.3.4-.4.7-.6.3-.2.6-.2 1-.2.6 0 1.1.3 1.4 1 .3.6.3 1.5.1 2.5-.2 1.1-.6 1.9-1 2.5-.5.6-1.1.8-1.7.8-.6 0-1.1-.4-1.3-1-.5-.6-.5-1.4-.3-2.4zm.9 0c-.1.7-.1 1.3 0 1.7.2.4.4.6.7.6.3 0 .7-.2 1-.5.3-.4.5-.9.7-1.7.1-.7.1-1.3 0-1.7-.1-.4-.4-.6-.8-.6s-.7.2-1 .5c-.3.4-.5.9-.6 1.7zM56.2 82.2l3.5.1-1.3 6.7-.9-.1 1-5.5-1.7-.1-1 5.5-.9-.1 1.3-6.5zM63.4 89.3l-1-.1-.1-1.5-1.8-.1-.7 1.5-1-.1 3-6.5h1l.6 6.8zm-1.2-2.8L62 84l-1 2.5h1.2zM67.1 87l.8.5c-.3.7-.6 1.3-1 1.6-.4.3-.8.5-1.3.5-.6 0-1-.4-1.3-1-.3-.7-.3-1.6-.1-2.6.2-1.1.6-2 1.1-2.6.5-.6 1.1-.9 1.7-.9.6 0 1 .3 1.2.8.2.3.2.7.2 1.3l-1 .3c0-.4-.1-.6-.2-.8-.1-.2-.3-.3-.6-.3s-.6.2-.9.5c-.3.3-.5.9-.6 1.7-.2.8-.2 1.5 0 1.8.1.4.4.6.7.6.2 0 .5-.1.7-.3.2-.3.4-.7.6-1.1zM68.3 89.5l1.2-6.8h.9l-.4 2.8 1.8.1.5-2.7h.9L72 89.7l-.9-.1.5-3-1.8-.1-.5 3h-1zM73.4 86.4c.1-.7.3-1.3.5-1.7l.6-.9c.2-.3.5-.5.7-.6.3-.2.7-.2 1.1-.2.7 0 1.2.4 1.5 1 .3.6.4 1.5.2 2.7-.2 1.1-.6 2-1.1 2.6-.5.6-1.1.9-1.8.8-.7 0-1.2-.4-1.5-1-.3-.7-.4-1.6-.2-2.7zm1 0c-.1.8-.1 1.4 0 1.8.2.4.5.6.8.7.4 0 .7-.2 1-.5.3-.4.5-1 .7-1.8.1-.8.1-1.4 0-1.8-.2-.4-.5-.6-.8-.6-.4 0-.7.2-1.1.5-.2.4-.4.9-.6 1.7zM81.7 83.3l3.4.1-1 5.8h.4L84 92h-.8l.3-1.5-3.1-.2-.3 1.5h-.8l.5-2.7h.4c.3-.6.6-1.3.8-2 .2-.8.4-1.8.6-3l.1-.8zm.7 1.2c-.4 2.1-.8 3.6-1.2 4.6l1.9.1.8-4.6-1.5-.1zM86.5 83.5l3.5.1-1.2 7-1-.1 1-5.8-1.5-.1-.5 3c-.2.9-.3 1.5-.4 1.8-.1.3-.2.6-.4.8-.2.2-.5.3-.8.2-.1 0-.3 0-.6-.1l.2-1.1h.2c.2 0 .4 0 .4-.1.1-.1.2-.3.2-.6l.2-1.2.7-3.8zM92.8 90.9l.5-3h-.2c-.3 0-.6 0-.7.2-.2.1-.5.5-.9 1.2l-1 1.5-1.2-.1.9-1.3c.3-.5.6-.9.8-1.1l.6-.6c-.5-.1-.8-.4-.9-.7-.1-.4-.2-.8-.1-1.3.1-.4.2-.8.4-1.1.2-.3.5-.5.7-.6.3-.1.7-.1 1.2-.1l2.2.1-1.3 7-1-.1zm1-5.9h-1.6c-.1 0-.3.1-.4.2-.1.1-.2.3-.2.6v.6c.1.2.2.2.3.3.1 0 .4.1.8.1h.8l.3-1.8zM101.4 84.1l-.5 3.1c.2 0 .3-.1.4-.3.1-.2.3-.5.6-1.1.3-.7.6-1.2.9-1.4.3-.2.6-.3 1.1-.3h.2l-.2 1.1h-.2c-.2 0-.4 0-.5.1l-.3.3c-.1.1-.2.5-.4.9-.1.2-.2.5-.3.6-.1.2-.3.3-.5.5.2.1.4.3.5.6.1.3.2.7.3 1.2l.4 2-1.3-.1-.3-1.9v-.2c0-.1 0-.2-.1-.3-.1-.4-.1-.6-.2-.7-.1-.1-.2-.2-.3-.2l-.5 3.2-1-.1.5-3.2c-.1 0-.2 0-.3.1-.1.1-.2.3-.4.6-.1.2-.2.3-.2.3l-.1.1-.9 1.8-1.2-.1 1-1.9c.3-.5.5-.9.7-1.1.2-.3.4-.5.7-.5-.2-.2-.3-.3-.3-.5s-.1-.4-.1-.6c0-.5-.1-.8-.1-.9 0-.2-.1-.3-.2-.4-.1-.1-.2-.1-.5-.1h-.1l.2-1.1h.2c.5 0 .8.1 1 .4.2.2.3.7.4 1.4.1.6.1 1 .2 1.1.1.2.2.3.4.3l.5-3.1.8.4zM104.7 84.3h1l-.8 4.8 3-4.7h1.1l-1.2 7.3-1-.1.8-4.8-3 4.7-1.1-.1 1.2-7.1zM110.6 86.5l-1-.4c.4-1.2 1.2-1.7 2.3-1.7.6 0 1.1.2 1.4.6.3.4.4.8.3 1.4-.1.4-.2.7-.4.9-.2.3-.5.5-.8.7.3.2.6.4.7.8.1.3.2.7.1 1.2-.1.6-.4 1.2-.8 1.5-.4.4-1 .6-1.7.5-.6 0-1-.2-1.3-.5-.3-.3-.5-.8-.5-1.5l1.1-.4c0 .4.1.7.3.9.2.1.4.2.6.2.3 0 .6-.1.8-.3.2-.2.3-.4.4-.7 0-.3 0-.6-.2-.7-.2-.2-.4-.3-.8-.3h-.2l.2-1.1h.1c.3 0 .6-.1.8-.3.2-.2.3-.5.4-.8 0-.3 0-.5-.1-.7-.1-.2-.3-.3-.6-.3-.6.1-.9.4-1.1 1zM113.7 92.1l1.2-7.4h1.1l-.5 2.9 2.2.1.5-2.9h1.1l-1.2 7.5-1.1-.1.5-3.3-2.2-.1-.5 3.3h-1.1zM120.5 85h1.1l-.8 5 3.1-4.9h1.2l-1.2 7.5-1.1-.1.8-4.9-3.1 4.8-1.1-.1 1.1-7.3z"/></g><g><path fill="#020201" d="M67.7 44.9h-.4c-.9-.2-1.1-1.4-.6-2.6.2-.4.5-.8.7-1.2 5-7 9.7-13.5 14-19.6.2-.3.5-.5.8-.7.8-.4 1.5-.1 1.7.4 2 5.1 4.2 10.7 6.6 17 .3.7.5 1.3.7 2 .2.7.1 1.5-.3 2.2-.5.8-1.2 1.2-1.9 1.3-3.7.2-7.4.4-11 .6-3.4.2-6.9.4-10.3.6zm21.4-2.7s.1 0 0 0c.8 0 1.1-.7.9-1.3-.3-.9-.7-1.8-1-2.7-2.3-6-4.3-11.4-6.1-16.3-.1-.1-.2-.2-.3-.2-.2 0-.3.1-.4.3-4.3 6.1-8.9 12.6-13.9 19.7-.1.2-.2.3-.3.5l-.3.6c-.1.4.1.7.4.7l4.2-.3c2-.1 4-.2 6.1-.4 3.5-.2 7.1-.4 10.7-.6z"/><path fill="#FED32A" d="m72.3 43.2-4.2.3c-.4 0-.6-.3-.4-.7l.3-.6c.1-.2.2-.3.3-.5 5-7.1 9.6-13.6 13.9-19.7.1-.2.3-.3.4-.3.2 0 .3.1.3.2 1.8 4.9 3.9 10.3 6.1 16.3.3.9.7 1.8 1 2.7.2.6-.1 1.3-.8 1.3h-.1c-3.6.2-7.2.4-10.7.6-2.1.2-4.1.3-6.1.4z"/><path fill="#010100" d="M79.8 27.8c-.2 1.1-.3 2.1-.5 3.2-.1.9-.3 1.8-.4 2.8-.1.4-.1.8-.2 1.2 0 .6.4 1 1 .9.6-.1 1.1-.7 1.3-1.3.2-.9.5-1.9.8-2.8.3-.9.5-1.8.7-2.7.1-.5.3-.9.4-1.4.1-.2 0-.5-.1-.6-.6-.7-1.6-.7-2.6.2-.3.1-.4.3-.4.5zM77.4 38.8c-.2 1 .3 1.9 1.2 1.9.9 0 1.8-.9 2.1-2 .2-1.1-.3-1.9-1.2-1.9-1 0-1.9.9-2.1 2z"/></g><g><path fill="#FFF" d="M109.4 43.6c-7.2.8-12.1-5.7-10.2-14.5 1.7-8.2 8.5-14.6 15-14.8 6.4-.3 10.7 5.4 9.8 13-.9 8-7.4 15.6-14.6 16.3z"/><path fill="#005B8E" d="M109.4 43.6c-7.2.8-12.1-5.7-10.2-14.5 1.7-8.2 8.5-14.6 15-14.8 6.4-.3 10.7 5.4 9.8 13-.9 8-7.4 15.6-14.6 16.3zm7.9-17.2c.2-.1.4-.2.4-.5.3 0 .5-.1.8-.1.3-.1.7-.1 1-.2.4-.1.7-.6.6-1 0-.1-.1-.2-.2-.2-.4 0-.5-.3-.6-.7-.1-1.4-.5-2.6-1.1-3.6-.8-1.4-1.8-2.4-3.2-3-1-.4-2-.5-3.2-.4-.8.1-1.6.2-2.4.6-1.6.7-2.8 1.9-3.7 3.7-.5 1-.8 2-1.1 3-.2.8-.4 1.6-.5 2.4 0 .2 0 .3.2.3h1c.1 0 .2 0 .2.1-.1 1.1 0 2.2.1 3.3.1 1.2.2 2.5.3 3.8.1 1-.3 1.9-1 2.8 0 0 0 .1-.1.1.3.1.5.3.8.4 1.4.7 2.8 1.5 4.2 2.2.1.1.2 0 .3-.1.4-.6.9-1.2 1.4-1.8.4-.6.8-.7 1.3-.6l1.2.3c.5.1 1 .2 1.6-.2.3-.2.5-.4.7-.7.3-.3.3-.7.3-1 0-.1-.1-.2-.1-.3-.1-.3-.1-.5.2-.7.2-.2.2-.3.1-.5v-.1c0-.1.1-.2.1-.3v-.7c.1 0 .2-.1.2-.1.2-.1.3-.2.5-.3.2-.2.3-.4.2-.6-.1-.3-.3-.7-.5-1 0-.1-.1-.2-.1-.3-.3-.5-.4-1.2-.1-1.9.1-.4.1-.8.1-1.2 0-.3-.1-.5-.1-.8 0 0 .1-.1.2-.1z"/><path fill="#005B8E" d="M105.5 36.6c.6.3 1.1.6 1.6.9.9.5 1.8 1 2.7 1.4.1.1.2 0 .3-.1.4-.6.8-1.1 1.3-1.6.5-.6 1-.8 1.6-.7.5.1.9.2 1.4.3.5.1 1 .1 1.5-.4l.3-.3c.1-.2.2-.4.1-.5 0-.1 0-.2-.1-.3-.1-.4-.1-.7.2-1.1.1-.1.1-.2.1-.3 0-.1 0-.2-.1-.4.2-.1.2-.3.2-.5v-.7c.3-.1.6-.3.9-.4-.1-.1-.1-.2-.1-.3-.2-.4-.4-.9-.6-1.3-.3-.5-.3-1.1-.1-1.7.2-.8.1-1.4 0-2-.4.2-.8.3-1.3.5-.8.3-1.4.2-2-.3-.2-.2-.3-.2-.4.2-.1.2-.2.5-.1.7.4.7.1 1.5-.3 2.3 0 .1-.1.2-.2.3-.3.3-.5.5-.8.2-.2-.1-.3-.3-.4-.5-.1-.2-.2-.3-.4-.3h-.6c-.3.1-.6.4-.7.8-.1.4-.1.8-.1 1.2 0 .1.1.2.1.2.2.1.2.3.1.6-.1.2-.3.4-.4.5-.8.9-1.8 1.6-2.7 2.3-.3.2-.6.5-.8.9 0 .1-.1.2-.2.4z"/><path fill="#005B8E" d="M105.9 26.7v1.1c.1 1.4.2 2.9.3 4.4.1.8.1 1.6.1 2.4 0 .1 0 .3-.1.4 1.1-.9 2.2-1.6 3.1-2.7-.3-.1-.3-.3-.3-.6 0-.4 0-.8.1-1.2.2-.8.8-1.2 1.5-1.2h.3c.3 0 .6.1.7.5.1.2.2.3.3.4.1.1.3.1.4-.1.2-.3.3-.7.4-1 .1-.3.1-.6 0-.9-.2-.5-.2-1.1.3-1.7-2.3.2-4.7.2-7.1.2zM113.6 26.4c.4.3.8.5 1.4.4.7-.2 1.4-.5 2.1-.8-1.1.1-2.3.3-3.5.4z"/></g><radialGradient id="h" cx="60.688" cy="191.622" r="35.72" gradientTransform="matrix(2.5112 0 0 .561 -54.699 35.488)" gradientUnits="userSpaceOnUse"><stop offset="0" style="stop-color:#000;stop-opacity:.6"/><stop offset=".121" style="stop-color:#040404;stop-opacity:.5273"/><stop offset=".246" style="stop-color:#111;stop-opacity:.4523"/><stop offset=".373" style="stop-color:#252525;stop-opacity:.3762"/><stop offset=".501" style="stop-color:#424242;stop-opacity:.2994"/><stop offset=".63" style="stop-color:#676767;stop-opacity:.222"/><stop offset=".76" style="stop-color:#959595;stop-opacity:.1441"/><stop offset=".888" style="stop-color:#cacaca;stop-opacity:6.723648e-02"/><stop offset="1" style="stop-color:#fff;stop-opacity:0"/></radialGradient><ellipse fill="url(#h)" cx="97.7" cy="143" rx="89.7" ry="20"/></svg>