<svg xmlns="http://www.w3.org/2000/svg" viewBox="0 0 187.4 163" xml:space="preserve"><path fill="#4F4F4F" d="m51.1 42.1-14 103 3.3-.4L54.9 42.1z"/><path fill="#919191" d="m46.3 39.1-14 104 4.8 2 14-103z"/><path fill="#CBCBCB" d="m54.9 42.1-4.9-3h-3.7l4.8 3z"/><path fill="#686868" d="m123.2 21.8 24 119 7.9 2.2-25.6-124.7z"/><path fill="#CFCFCF" d="M131.6 18.3h-2.1L155.1 143l2.5-1.3z"/><path fill="#4F4F4F" d="m134.9 48.5-20.2 85.1h2.4l20-85.1z"/><path fill="#CBCBCB" d="m137.1 48.5-6.2-2.9h-2.2l6.2 2.9z"/><path fill="#686868" d="m128.7 45.6-20.1 86.8 6.1 1.2 20.2-85.1z"/><path fill="#434343" d="m45.1 111.4-1.1 8.4 72.8-6.9 1.4-7z"/><path fill="#C4C4C4" d="m116.7 104.8-71.4 5.1-.2 1.5 73.1-5.5z"/><path fill="#434343" d="M63.6 130.4v.4l85.4-10.7.2-.2z"/><path fill="#C8C8C8" d="m147.5 111.3-85.6 8.4 1.7 10.7 85.6-10.5z"/><path fill="#686868" d="m36.6 12 21.3 145.2 6.4 3.1-22.6-150z"/><path fill="#CFCFCF" d="m45.1 10.8-3.4-.5 22.6 150 3.7-.9z"/><path fill="#FFF" d="m36 0 3 21.2L139.2 33l-3.3-17z"/><path fill="#FC7309" d="M41.7 21.6 53.5 2.8 36 0l3 21.2zM72.3 5.8l-9.1-1.4-11 18.4 8.1.9 1.6.2zM81.2 7.2c-.1.2-9.8 17.8-9.8 17.8h.4l8.5 1 9.3-17.5-8.4-1.3zM89 27.1l8.6 1 8.1-16.9-4.8-.8-2.9-.5zM113.2 12.4 105.4 29l5.7.7 2.3.3 7.1-16.5zM120.5 30.8l5.2.6 2.3.3 6.4-15.9-4-.7-2.8-.4z"/><path fill="#5B5B5B" d="m36.3.2 99.5 15.9 3.2 16.6-99.8-11.6L36.3.2M36 0l3 21.2L139.2 33l-3.3-17L36 0z"/><linearGradient id="a" gradientUnits="userSpaceOnUse" x1="87.032" y1="0" x2="87.032" y2="34.008"><stop offset="0" style="stop-color:#6b2906"/><stop offset="1" style="stop-color:#000"/></linearGradient><path fill="url(#a)" d="m125.7 31.4-5.2-.6-7.1-.8-2.3-.3-30.8-3.6-8.5-1-11.5-1.4-8.1-.9L39 21.2 36 0l-1.1 1 3 21.3L138 34l1.2-1z"/><g><path fill="#FFF" d="m43.6 51.6 3.3 23 101 .2-3.5-18z"/><path fill="#FC7309" d="m43.6 51.5 18 .9-11.8 22.2-2.9-.1zM71.3 52.9 60.2 74.6h10.1l10.5-21.2zM79.7 74.7 89.6 54l8.7.4-9.4 20.3zM97.7 74.6l8.7-19.8 8 .4-8.1 19.5zM114.1 74.7l7.8-19.1 7.4.3-7 18.8zM129.4 74.7l6.8-18.4 6.9.4-6.2 18z"/><linearGradient id="b" gradientUnits="userSpaceOnUse" x1="95.181" y1="51.575" x2="95.181" y2="75.575"><stop offset="0" style="stop-color:#6b2906"/><stop offset="1" style="stop-color:#201d1a"/><stop offset="1" style="stop-color:#000"/></linearGradient><path fill="url(#b)" d="m42.4 52.8 1.2-1.2 3.3 22.9 101 .2-1.1.9H46z"/><path fill="#020202" d="m43.8 51.7 100.4 5.2 3.5 17.6-100.6-.2-3.3-22.6m-.2-.2 3.3 23.1 101 .2-3.6-18-100.7-5.3z"/></g><g><path fill="#FFF" d="m47.8 79.9 101.4-1 3.6 18.7-101.6 6.1z"/><path fill="#FC730A" d="m47.8 79.9 18.2-.2-11.9 23.8-2.9.2zM64.3 102.9l11.3-23.3 9.5-.1-10.4 22.8zM94.1 79.4l-9.8 22.3 9.4-.5 9.2-21.9M102.2 100.7l8.6-21.4 8.2-.1-8.1 20.9zM118.7 99.7l7.8-20.6 7.4-.1-7.1 20.2zM134 98.7l6.9-19.8h7l-6.4 19.4z"/><path d="m149 79.1 3.6 18.4-101.2 6.1L48 80.1l101-1m.2-.2-101.4 1 3.4 23.8 101.6-6.1-3.6-18.7z"/><linearGradient id="c" gradientUnits="userSpaceOnUse" x1="99.856" y1="79.904" x2="99.856" y2="104.298"><stop offset="0" style="stop-color:#6b2906"/><stop offset="1" style="stop-color:#201d1a"/><stop offset="1" style="stop-color:#000"/></linearGradient><path fill="url(#c)" d="m47.8 79.9-.9 1 3.2 23.4 101.4-6 1.3-.7-101.6 6.1z"/></g><g><path fill="#8C3D07" d="M49.5 8.2c.2 0 .4 0 .6.1l77.6 12.4c1.6.3 2.9 1.5 3.3 3.1l13.8 63.7c.2 1.1 0 2.3-.7 3.3-.7.9-1.8 1.5-2.9 1.6L62.4 97h-.2c-2 0-3.6-1.4-3.9-3.4L45.5 12.9c-.2-1.2.1-2.3.9-3.2.8-.9 1.9-1.5 3.1-1.5m0-1c-3 0-5.4 2.7-4.9 5.8l12.6 80.8c.4 2.4 2.5 4.2 4.9 4.2h.3l78.7-4.7c3.1-.2 5.2-3.1 4.6-6L132 23.6c-.4-2-2.1-3.6-4.1-3.9L50.3 7.3c-.3 0-.6-.1-.8-.1z"/><path fill="#FFF" d="M62.6 96.6c-2.2 0-4.1-1.6-4.4-3.8L45.5 12.1c-.2-1.3.2-2.6 1-3.6.9-1 2.1-1.6 3.4-1.6.2 0 .5 0 .7.1l77.6 12.4c1.8.3 3.3 1.7 3.7 3.5l13.8 63.7c.3 1.3 0 2.6-.8 3.7-.8 1-2 1.7-3.3 1.8l-78.7 4.7c-.1-.2-.2-.2-.3-.2z"/><path fill="#CC5605" d="M49.9 7.4c.2 0 .4 0 .6.1l77.6 12.4c1.6.3 2.9 1.5 3.3 3.1l13.8 63.7c.2 1.1 0 2.3-.7 3.3-.7.9-1.8 1.5-2.9 1.6l-78.7 4.7h-.2c-2 0-3.6-1.4-3.9-3.4L46 12c-.2-1.2.1-2.3.9-3.2.8-.9 1.9-1.4 3-1.4m0-1c-3 0-5.4 2.7-4.9 5.8L57.6 93c.4 2.4 2.5 4.2 4.9 4.2h.3l78.7-4.7c3.1-.2 5.2-3.1 4.6-6l-13.8-63.7c-.4-2-2.1-3.6-4.1-3.9L50.7 6.4h-.8z"/></g><g><path d="m68.1 46.2 2.8.2c.5 0 1 .1 1.2.1.3.1.5.2.8.4.2.2.4.4.6.7.2.3.3.6.3.9.1.4 0 .7-.1 1-.1.3-.3.5-.6.6.4.2.8.4 1.1.7.3.3.4.7.5 1.2 0 .4 0 .7-.1 1-.1.3-.3.6-.5.8-.2.2-.5.3-.9.3h-1.7l-2.3-.1-1.1-7.8zm1.6 1.3.2 1.8h1.9c.2 0 .4-.1.5-.2.1-.1.2-.3.1-.6 0-.2-.1-.4-.3-.6-.1-.2-.3-.3-.6-.3-.1 0-.5-.1-1.2-.1h-.6zm.4 3.1.3 2.1 1.3.1h1c.2 0 .4-.1.5-.3.1-.2.1-.4.1-.7 0-.2-.1-.4-.2-.6-.1-.2-.3-.3-.5-.4-.2-.1-.6-.1-1.3-.2h-1.2zM76.2 54.2l-1.1-7.7 1.4.1.4 3 2.7.1-.4-3 1.3.1 1.1 7.6h-1.3l-.6-3.4-2.7-.1.5 3.4-1.3-.1zM81.8 46.9l1.2.1.8 5 1.9-4.9 1.3.1 1.2 7.5H87l-.8-4.9-1.9 4.8H83l-1.2-7.7zM89.5 54.7l-1.2-7.4 1.9.1 2 5.1.3-5 1.9.1 1.2 7.3h-1.2l-1-5.8-.3 5.8h-1.2L89.7 49l.9 5.9-1.1-.2zM102.3 55.2H101l-.8-1.7-2.4-.1-.3 1.6h-1.3l1.2-7.2 1.3.1 3.6 7.3zm-2.7-3-1.3-2.7-.4 2.7h1.7zM103 55.2l-1.3-7.2 1.2.1.5 2.8 2.3.1-.5-2.8 1.2.1 1.3 7.1h-1.2l-.6-3.1-2.3-.1.6 3.2-1.2-.2zM107.6 48.3l1.1.1.9 4.7 1.4-4.6 1.1.1 1.3 7h-1.1l-.9-4.6-1.5 4.5h-1.2l-1.1-7.2zM114.7 55.7l-1.3-7 4.1.2.2 1.2-3-.2.3 1.5 2.8.1.2 1.2-2.8-.1.4 1.9 3.1.1.2 1.2-4.2-.1zM120 54.1l-1-3.5-.3-1.6 1.1.1.3 1.6.4 3.5-.5-.1zm.1 1.8-.3-1.3h1.1l.3 1.3h-1.1zM122.5 54.2l-1-3.5-.3-1.6 1.1.1.3 1.6.4 3.5-.5-.1zm.1 1.8-.3-1.3h1l.3 1.3h-1zM125 54.3l-1-3.5-.3-1.6 1.1.1.3 1.6.5 3.4h-.6zm.1 1.8-.3-1.3h1l.3 1.3h-1zM80.7 65.3l-1-6.5h1.8c.7 0 1.1.1 1.4.1.3.1.6.3.9.7.3.3.4.7.5 1.3.1.4 0 .7 0 1-.1.3-.2.5-.4.6-.2.2-.3.3-.5.3-.3.1-.6.1-1.2.1h-.7l.4 2.5-1.2-.1zm.3-5.5.3 1.8h.6c.4 0 .7 0 .9-.1l.3-.3c.1-.1.1-.3.1-.5s-.1-.4-.3-.6c-.1-.2-.3-.3-.5-.3-.1 0-.4-.1-.8-.1l-.6.1zM90.2 65.4H89l-.7-1.5h-2.2l-.2 1.5h-1.2l1.2-6.4h1.2l3.1 6.4zm-2.4-2.6-1.1-2.4-.4 2.4h1.5zM89.8 59l4 .1.2 1.1-3-.1.2 1.5h1.4c.4 0 .7.1 1 .2.3.1.5.3.8.7.2.3.4.7.5 1.1.1.4 0 .8-.1 1.1-.1.3-.3.5-.5.6-.2.1-.5.2-1 .2h-2.5l-1-6.5zm1.9 5.3h1.8c.1 0 .2-.1.3-.3.1-.1.1-.3.1-.5 0-.3-.2-.5-.4-.6-.2-.1-.5-.2-.9-.2h-1.1l.2 1.6zM95.4 62.3c-.1-.6-.1-1.2 0-1.6.1-.3.2-.6.3-.8.2-.2.4-.4.6-.5.3-.2.7-.2 1.1-.2.8 0 1.4.3 2 .9.6.6.9 1.4 1.1 2.4.2 1 .1 1.8-.3 2.4-.4.6-.9.8-1.7.8-.8 0-1.4-.3-2-.9-.6-.7-1-1.5-1.1-2.5zm1.1 0c.1.7.3 1.3.7 1.6.3.4.7.6 1.1.6.4 0 .7-.2.9-.5.2-.4.2-.9.1-1.6-.1-.7-.3-1.3-.7-1.6-.3-.4-.7-.5-1.1-.6-.4 0-.8.2-1 .5-.1.3-.2.9 0 1.6zM102.9 65.5l-.9-5.2h-1.5l-.2-1 4 .1.2 1H103l.9 5.2-1-.1zM110.1 65.6H109l-.7-1.4h-2l-.2 1.4H105l.8-6.1h1.1l3.2 6.1zm-2.3-2.5-1.1-2.3-.3 2.3h1.4zM109.5 59.5h1l.5 2.5h.8c-.1-.7 0-1.4.3-1.9s.7-.7 1.4-.7 1.2.3 1.7.8.8 1.3 1 2.3c.1.6.1 1.2.1 1.7-.1.5-.3.8-.5 1.1-.3.3-.6.4-1.1.4-.5 0-.9-.1-1.2-.3-.3-.2-.6-.5-.9-.9-.3-.4-.5-.9-.6-1.4h-.8l.5 2.5h-1l-1.2-6.1zm3.3 3.1c.1.7.3 1.2.6 1.6.3.4.6.6 1 .6s.7-.2.8-.5c.1-.4.1-.9 0-1.6-.1-.7-.3-1.2-.6-1.5-.3-.3-.6-.5-1-.5-.3 0-.6.1-.8.5-.1.2-.1.7 0 1.4zM118.5 65.7l-1-5h-1.4l-.2-1 3.7.1.2 1h-1.4l1 5-.9-.1zM68.3 69.7h4.1l.2 1.1h-2.8l.8 5.8h-1.2l-1.1-6.9zM78.7 76.5h-1.3l-.7-1.5h-2.4l-.3 1.6h-1.3l1.4-6.9h1.3l3.3 6.8zm-2.5-2.7L75 71.3l-.4 2.5h1.6zM82.5 74l1.2.4c-.1.7-.3 1.3-.6 1.7-.3.4-.8.6-1.4.6-.8 0-1.4-.3-2-.9-.6-.6-1-1.5-1.1-2.5-.2-1.1 0-2 .4-2.6.4-.6 1-.9 1.8-.9.7 0 1.3.2 1.8.7.3.3.6.7.8 1.2l-1.1.3c-.1-.3-.3-.6-.5-.8-.2-.2-.5-.3-.8-.3-.4 0-.7.2-1 .5-.2.4-.3.9-.1 1.7.1.9.3 1.5.7 1.8.3.4.7.5 1.1.5.3 0 .6-.1.7-.4-.1-.2 0-.5.1-1zM86 76.4l-.8-5.6h-1.7l-.2-1.1h4.4l.2 1.1h-1.6l.8 5.5-1.1.1zM94 76.3h-1.2l-.7-1.5h-2.2l-.2 1.5h-1.2l1.1-6.6h1.2l3.2 6.6zm-2.5-2.6-1.1-2.4-.4 2.4h1.5zM94.5 76.3l-1.1-6.5h1.7c.7 0 1.1 0 1.3.1.3.1.6.3.9.6.3.3.4.7.5 1.3.1.4.1.7 0 1-.1.3-.2.5-.3.6-.2.2-.3.3-.5.3-.2.1-.6.1-1.1.1h-.7l.4 2.5h-1.1zm.2-5.4.3 1.8h.6c.4 0 .7 0 .8-.1l.3-.3c.1-.1.1-.3 0-.5 0-.2-.1-.4-.3-.6-.1-.2-.3-.2-.5-.3H94.7zM98.5 69.8h3.9l.2 1.1h-2.8l.3 1.5h1.4c.4 0 .7.1 1 .2.3.1.5.3.8.6.2.3.4.7.5 1.1.1.4 0 .8-.1 1.1-.1.3-.3.5-.5.6-.2.1-.5.2-1 .2h-2.5l-1.2-6.4zm1.9 5.3h1c.3 0 .6 0 .7-.1.1 0 .2-.1.3-.3.1-.1.1-.3.1-.5-.1-.3-.2-.5-.4-.6-.2-.1-.5-.2-.9-.2h-1.1l.3 1.7zM109.1 76.1H108l-.7-1.4h-2l-.2 1.5H104l.9-6.4h1.1l3.1 6.3zm-2.4-2.5-1.1-2.3-.3 2.4 1.4-.1zM108.5 69.8h.9l.8 4.2 1.2-4.2h1l1.2 6.2h-.9l-.8-4.1-1.3 4.1h-1l-1.1-6.2zm2.3-1.6h.5c0 .4 0 .7-.2.9-.1.2-.4.3-.7.3-.3 0-.6-.1-.8-.3-.2-.2-.4-.5-.5-.9h.5c.1.2.1.4.3.5.1.1.3.2.4.2.2 0 .3-.1.4-.2.1-.1.1-.3.1-.5zM115.7 76l-1-5.2h-1.4l-.2-1h3.8l.2 1h-1.4l1 5.1-1 .1zM118.7 75.9l-1.2-6.2h3.5l.2 1h-2.5l.3 1.4h2.4l.2 1h-2.4l.3 1.7h2.6l.2 1-3.6.1zM123.1 75.9l-1.2-6.1h1.5c.6 0 .9 0 1.1.1.3.1.5.3.8.6.2.3.4.7.5 1.2.1.4.1.7 0 .9-.1.3-.1.5-.3.6-.1.1-.3.2-.4.3-.2.1-.5.1-1 .1h-.6l.5 2.3h-.9zm0-5.1.3 1.7h.5c.4 0 .6 0 .7-.1.1-.1.2-.2.2-.3v-.5c0-.2-.1-.4-.3-.5-.1-.1-.3-.2-.4-.3h-1zM126.2 69.8h.9l.5 2.4h1.2c.3 0 .6.1.9.2.3.1.5.3.7.6.2.3.4.6.4 1 .1.4.1.8 0 1.1-.1.3-.2.5-.4.6-.2.1-.5.2-.8.2h-2.1l-1.3-6.1zm2 5h.9c.3 0 .5 0 .6-.1.1 0 .2-.1.2-.3.1-.1.1-.3 0-.5-.1-.3-.2-.5-.3-.6-.2-.1-.4-.2-.8-.2h-.9l.3 1.7zm2.3-5h.9l1.2 5.9h-.9l-1.2-5.9z"/><path fill="red" d="M61.6 85.3c-.1-.7-.1-1.4.1-1.9.1-.4.3-.7.5-1 .2-.3.5-.5.7-.7.4-.2.8-.3 1.3-.3.9 0 1.7.3 2.3.9.6.6 1 1.5 1.2 2.7.1 1.2 0 2.1-.5 2.8-.5.7-1.2 1-2.1 1.1-.9 0-1.7-.3-2.4-.9-.5-.6-.9-1.5-1.1-2.7zm1.3-.1c.1.8.3 1.4.7 1.9.4.4.8.6 1.3.6s.9-.2 1.2-.7c.3-.4.4-1.1.2-1.9-.1-.8-.3-1.4-.7-1.8-.4-.4-.8-.6-1.3-.6s-.9.2-1.2.7c-.2.4-.3 1-.2 1.8zM68.3 81.5l4.8-.1.9 7.1-1.2.1-.8-6-2.4.1.8 6-1.2.1-.9-7.3zM80.7 88.2l-1.3.1-.7-1.6-2.4.1-.3 1.5-1.3.1 1.4-7.1h1.3l3.3 6.9zm-2.6-2.7-1.2-2.6-.4 2.6h1.6zM84.4 85.4l1.2.4c-.1.8-.3 1.3-.6 1.7-.3.4-.8.6-1.5.6-.8 0-1.5-.3-2-.9-.6-.6-1-1.5-1.1-2.6-.2-1.2 0-2.1.4-2.7.4-.7 1-1 1.8-1 .7 0 1.3.2 1.8.7.3.3.6.7.8 1.2l-1.1.4c-.1-.4-.3-.6-.5-.8-.2-.2-.5-.3-.8-.3-.4 0-.7.2-1 .6-.2.4-.3 1-.1 1.8.1.9.3 1.5.7 1.9.3.4.7.5 1.1.5.3 0 .6-.1.7-.4.1-.2.2-.6.2-1.1zM86.9 87.9l-1-6.9H87l.4 2.7 2.2-.1-.4-2.7h1.1l1.1 6.8h-1.1l-.5-3-2.2.1.5 3-1.2.1zM91.8 84.3c-.1-.7-.1-1.3 0-1.7.1-.3.2-.7.4-.9.2-.3.4-.5.6-.6.3-.2.7-.3 1.1-.3.8 0 1.5.3 2.1.9.6.6 1 1.4 1.1 2.5.2 1.1.1 1.9-.3 2.6-.4.6-1 1-1.8 1s-1.5-.2-2.1-.8c-.5-.8-.9-1.6-1.1-2.7zm1.2-.1c.1.8.4 1.3.7 1.7.4.4.7.6 1.2.6.4 0 .8-.2 1-.6.2-.4.3-1 .1-1.8-.1-.8-.4-1.3-.7-1.7-.3-.4-.7-.5-1.2-.5s-.8.2-1 .6c-.2.3-.2.9-.1 1.7zM100 80.7l3.6-.1.9 5.5h.5l.4 2.6h-.9l-.2-1.5-3.3.1.2 1.5h-.9l-.4-2.6h.5c.1-.6.2-1.2.1-2s-.2-1.7-.4-2.8l-.1-.7zm1.2 1c.3 2 .4 3.5.3 4.4l2-.1-.7-4.4-1.6.1zM105.1 80.5l3.6-.1 1.2 6.5h-1l-1-5.4h-1.5l.5 2.8c.1.8.2 1.4.2 1.7 0 .3 0 .6-.2.8-.1.2-.4.3-.7.3h-.7l-.2-1h.2c.2 0 .4-.1.4-.1.1-.1.1-.3 0-.6l-.2-1.1-.6-3.8zM113.9 86.8l-.5-2.7h-.2c-.3 0-.5.1-.6.2-.1.1-.3.5-.5 1.1l-.5 1.4-1.2.1.4-1.3c.2-.5.3-.9.4-1.1.1-.2.3-.4.4-.6-.5-.1-.9-.3-1.1-.6-.3-.3-.4-.7-.5-1.2-.1-.4-.1-.7 0-1.1.1-.3.3-.5.5-.6.2-.1.6-.2 1.1-.2l2.1-.1 1.2 6.4-1 .3zm-.9-5.4h-.8c-.4 0-.7 0-.8.1-.1 0-.2.1-.3.2-.1.1-.1.3 0 .5 0 .2.1.4.2.5.1.1.2.2.4.2h1.5l-.2-1.5zM119.7 80.2l.5 2.7c.2 0 .3-.1.3-.2.1-.1.1-.5.2-1 .1-.7.2-1.1.3-1.3.2-.2.5-.3.9-.3h.1l.2.9h-.1c-.2 0-.3 0-.4.1-.1.1-.1.2-.2.3 0 .1-.1.4-.1.8 0 .2 0 .4-.1.6 0 .1-.1.3-.3.4.2.1.4.2.6.5.2.2.4.6.7 1l1 1.7h-1.1l-.9-1.6s0-.1-.1-.1c0 0-.1-.1-.2-.3-.2-.3-.3-.5-.4-.6-.1-.1-.2-.1-.3-.1l.5 2.8h-1l-.5-2.8c-.1 0-.2 0-.3.1-.1.1-.1.3-.2.6 0 .2-.1.3-.1.3v.1l-.3 1.7h-1.2l.3-1.8c.1-.4.2-.8.3-1 .1-.3.2-.4.5-.5-.2-.1-.4-.3-.4-.4-.1-.1-.2-.3-.3-.5-.2-.4-.3-.7-.4-.8l-.3-.3c-.1-.1-.3-.1-.5-.1h-.1l-.2-.9h.1c.5 0 .8.1 1.1.2.2.2.5.6.8 1.2.2.5.4.8.5 1 .1.1.2.2.4.2l-.5-2.7 1.2.1zM122.7 80.1h.9l.8 4.2 1.1-4.2h.9l1.2 6.2h-.9l-.8-4.1-1.1 4.1h-1l-1.1-6.2zM128.4 81.6l-1-.3c0-1 .4-1.5 1.4-1.5.5 0 1 .1 1.3.4.3.3.5.7.6 1.1.1.3.1.6 0 .8-.1.2-.2.5-.4.6.3.1.6.3.8.6.2.3.3.6.4.9.1.5.1 1-.2 1.3-.2.3-.6.5-1.2.6-.5 0-.9-.1-1.2-.3-.3-.2-.6-.6-.9-1.2l.8-.4c.2.4.3.6.5.7.2.1.4.2.6.1.3 0 .5-.1.6-.3.1-.2.1-.4.1-.6-.1-.3-.2-.5-.4-.6-.2-.1-.4-.2-.7-.2h-.2l-.2-.9h.1c.3 0 .5-.1.6-.3.1-.2.1-.4.1-.7 0-.2-.1-.4-.3-.6-.2-.1-.3-.2-.6-.2-.4.2-.6.5-.6 1zM132.7 86l-1.3-6.1h.9l.5 2.4 1.8-.1-.5-2.4h.9l1.3 6.1h-.9l-.6-2.7-1.8.1.6 2.7h-.9zM135.9 79.7h.8l.9 4 .9-4.1h.9l1.3 6h-.8l-.8-3.9-.9 4h-.9l-1.4-6z"/></g><g><path fill="#020201" d="M80 43.4c-4.4-.2-8.9-.5-13.5-.8-1-.1-1.8-.5-2.4-1.5-.5-.9-.6-1.9-.3-2.7.3-.8.6-1.7.9-2.5 3-7.7 5.7-14.7 8.1-20.9.2-.6 1.1-1 2.1-.5.4.2.7.5 1 .8 5.3 7.4 11 15.4 17.2 24.1.3.5.7.9.9 1.4.7 1.5.4 3-.7 3.2h-.5c-4.3-.1-8.5-.4-12.8-.6zm-.4-1.8c2.5.2 5 .3 7.5.4 1.7.1 3.5.2 5.2.3.4 0 .7-.3.5-.9-.1-.3-.2-.5-.3-.8-.1-.2-.3-.4-.4-.6-6.2-8.7-11.9-16.8-17.1-24.2-.1-.2-.3-.3-.5-.4-.2 0-.3.1-.4.2-2.3 6-4.8 12.7-7.5 20l-1.2 3.3c-.2.7.1 1.6 1 1.6h.1c4.3.5 8.7.8 13.1 1.1z"/><path fill="#FED32A" d="M79.6 41.6c-4.3-.3-8.7-.5-13.2-.8h-.1c-.9 0-1.3-.9-1-1.6l1.2-3.3c2.8-7.4 5.3-14 7.5-20 .1-.2.2-.3.4-.2.2 0 .4.2.5.4 5.3 7.5 11 15.5 17.1 24.2.1.2.3.4.4.6.1.2.3.5.3.8.1.5-.1.9-.5.9-1.7-.1-3.4-.2-5.2-.3-2.4-.4-4.9-.6-7.4-.7z"/><path fill="#010100" d="m77.9 23.1.6 3.9c.2 1.1.3 2.2.5 3.4.1.5.2 1 .2 1.4.1.8-.5 1.3-1.2 1.1-.7-.1-1.4-.8-1.6-1.6-.3-1.2-.6-2.3-.9-3.4-.3-1.1-.6-2.3-.9-3.4-.2-.6-.3-1.2-.5-1.7-.1-.3-.1-.6.1-.7.7-.8 2-.9 3.2.2.3.3.5.5.5.8zM80.8 36.6c.3 1.3-.3 2.3-1.4 2.3-1.1 0-2.3-1.2-2.6-2.5-.3-1.3.4-2.3 1.5-2.3 1.1.1 2.2 1.2 2.5 2.5z"/></g><g><path fill="#FFF" d="M98 30.6c-.8-6.9 3.1-11.9 8.8-11.7 5.8.2 12 5.9 13.5 13.4 1.6 7.9-2.7 13.8-9.2 13.1-6.4-.8-12.2-7.6-13.1-14.8z"/><path fill="#005B8E" d="M98 30.6c-.8-6.9 3.1-11.9 8.8-11.7 5.8.2 12 5.9 13.5 13.4 1.6 7.9-2.7 13.8-9.2 13.1-6.4-.8-12.2-7.6-13.1-14.8zm6.3-.7c0 .2-.1.5-.1.7 0 .3-.1.7.1 1.1.2.7.2 1.2-.1 1.7 0 .1-.1.2-.1.3-.1.3-.3.6-.4.9-.1.2 0 .4.2.6.1.1.3.2.4.3.1 0 .1.1.2.1v.7c0 .1.1.2.1.3v.1c-.1.2 0 .3.1.5.2.2.2.4.2.6 0 .1-.1.2-.1.2-.1.3 0 .6.2.9.2.2.4.4.7.6.5.3 1 .3 1.4.2.4-.1.7-.2 1.1-.3.4-.1.8 0 1.2.5.4.5.8 1.1 1.2 1.6.1.1.2.2.3.1 1.3-.7 2.5-1.3 3.8-2 .2-.1.5-.2.7-.4 0-.1-.1-.1-.1-.1-.7-.8-1-1.6-.9-2.5.1-1.1.2-2.3.3-3.4.1-1 .2-1.9.1-3 0-.1.1-.1.1-.1h.9c.2 0 .2-.1.2-.3-.2-.7-.3-1.4-.5-2.1-.2-.9-.5-1.8-1-2.7-.8-1.6-1.8-2.7-3.3-3.3-.7-.3-1.4-.4-2.1-.5-1-.1-2 0-2.9.4-1.2.5-2.2 1.5-2.9 2.7-.5 1-.9 2-1 3.3 0 .4-.2.6-.5.7-.1 0-.1.1-.2.2-.1.4.2.8.6.9.3 0 .6.1.9.1.2 0 .4.1.7.1 0 .3.1.4.3.4 0-.2.1-.1.2-.1z"/><path fill="#005B8E" d="M114.7 38.9c-.5.3-1 .5-1.5.8-.8.4-1.6.9-2.5 1.3-.1.1-.2 0-.3-.1-.4-.5-.8-1-1.1-1.5-.4-.6-.9-.7-1.4-.6l-1.2.3c-.5.1-.9.1-1.4-.4-.1-.1-.2-.2-.2-.3-.1-.2-.2-.3-.1-.5 0-.1 0-.2.1-.2.1-.3.1-.6-.2-1-.1-.1-.1-.2-.1-.3 0-.1 0-.2.1-.3-.2-.1-.2-.3-.2-.4v-.6c-.3-.1-.5-.2-.8-.4.1-.1.1-.2.1-.3l.6-1.2c.2-.4.2-1 .1-1.5-.2-.7-.1-1.2 0-1.8.4.1.8.3 1.1.4.7.3 1.3.2 1.8-.2.2-.2.2-.1.4.2.1.2.1.4.1.6-.3.6-.1 1.3.3 2.1 0 .1.1.2.1.2.2.3.5.4.7.2.2-.1.3-.3.4-.5.1-.2.2-.3.4-.3h.6c.3.1.6.3.6.7.1.3.1.7.1 1 0 .1-.1.2-.1.2-.2.1-.2.3-.1.5s.2.3.4.5c.8.8 1.6 1.4 2.4 2 .3.2.5.4.7.8-.1.4 0 .5.1.6z"/><path fill="#005B8E" d="M114.3 30v1l-.3 3.9c0 .7 0 1.5-.1 2.2 0 .1 0 .2.1.4-1-.8-1.9-1.5-2.8-2.4.3-.1.3-.3.3-.6 0-.4 0-.7-.1-1.1-.2-.7-.7-1.1-1.3-1.1h-.2c-.3 0-.5.1-.6.4-.1.1-.2.3-.3.4-.1.1-.2.1-.3-.1-.1-.3-.2-.6-.4-.9-.1-.3-.1-.6 0-.8.2-.5.1-1-.3-1.5 2 .3 4.1.2 6.3.2zM107.4 29.8c-.4.3-.8.5-1.3.4-.7-.1-1.3-.4-1.9-.7 1 0 2.1.2 3.2.3z"/></g><radialGradient id="d" cx="57.502" cy="191.622" r="35.72" gradientTransform="matrix(2.5112 0 0 .561 -54.699 35.488)" gradientUnits="userSpaceOnUse"><stop offset="0" style="stop-color:#000;stop-opacity:.6"/><stop offset=".121" style="stop-color:#040404;stop-opacity:.5273"/><stop offset=".246" style="stop-color:#111;stop-opacity:.4523"/><stop offset=".373" style="stop-color:#252525;stop-opacity:.3762"/><stop offset=".501" style="stop-color:#424242;stop-opacity:.2994"/><stop offset=".63" style="stop-color:#676767;stop-opacity:.222"/><stop offset=".76" style="stop-color:#959595;stop-opacity:.1441"/><stop offset=".888" style="stop-color:#cacaca;stop-opacity:6.723648e-02"/><stop offset="1" style="stop-color:#fff;stop-opacity:0"/></radialGradient><ellipse fill="url(#d)" cx="89.7" cy="143" rx="89.7" ry="20"/></svg>