<svg xmlns="http://www.w3.org/2000/svg" viewBox="0 0 175.7 144.7" xml:space="preserve"><linearGradient id="a" gradientUnits="userSpaceOnUse" x1="13553.828" y1="-18650.119" x2="13906.781" y2="-18650.119" gradientTransform="matrix(-.00792 .0752 .08696 .00916 1825.857 -734.34)"><stop offset="0" style="stop-color:#000;stop-opacity:5.000000e-02"/><stop offset="1" style="stop-color:#000;stop-opacity:.4"/></linearGradient><path fill="url(#a)" d="M160 119c3.5-.2 6.6-.2 9.1-.1s4.3.4 5.3.8c1.1.4 1.4.9 1.1 1.5-.3.6-1.4 1.2-3.2 1.9L125 141.8c-1.9.8-4.7 1.2-8.2 1.4-3.4.2-6.8.1-10.1-.4l-82-11.9c-6.5-.9-9.6-1.9-9.2-2.9.4-1 4.3-1.7 11.9-2.1L160 119"/><path fill="#212938" d="M95.2 14.6c-.2-1.2-.5-2.2-.8-3l-.7-.9-1.2.7L90 14 11.5 115.5c-1.2 1.7-2.1 3.2-2.4 4.5.4.7 1.6 1.2 3.5 1.4l98.1 11.1c2.1.3 3.5 0 4.1-.9.3-1.1.3-2.6 0-4.5L95.2 14.6m.1-10.1c1.2.1 2.3.8 3.1 2.2.9 1.3 1.5 3.1 1.9 5.3l19.8 112.4c.5 2.9.4 5.4-.2 7.6-.3 1.4-.9 2.5-1.6 3.4-1 1.3-2.3 2.2-3.9 2.8-1.6.6-3.4.7-5.3.5L11 127.6c-2-.2-3.6-.7-4.8-1.6-1.2-1-2-2.1-2.2-3.5-.2-.9-.2-2.1.2-3.5.6-2.3 1.9-4.7 3.9-7.2L86.5 10.4c3.4-4.2 6.3-6.2 8.8-5.9"/><linearGradient id="b" gradientUnits="userSpaceOnUse" x1="12204.791" y1="-18843.906" x2="13843.191" y2="-18843.906" gradientTransform="matrix(-.00792 .0752 .08696 .00916 1809.306 -734.34)"><stop offset="0" style="stop-color:#ffe81a"/><stop offset="1" style="stop-color:#ffd400"/></linearGradient><path fill="url(#b)" d="M84 7.8c2.1-2.7 4.3-4.8 6.5-6.1C92.6.3 94.6-.2 96.4 0c1.8.2 3.4 1.2 4.7 2.9 1.3 1.7 2.3 4.1 2.8 7.2l19.6 112.5c1.1 6.3 0 11.5-3.1 15.5-3 4-7.3 5.7-12.8 5.1l-98-11.1c-5.5-.6-8.6-3.1-9.4-7.6-.8-4.5 1-9.5 5.4-15.2L84 7.8m16.2 4.2c-.4-2.2-1-4-1.8-5.3-.9-1.4-1.9-2.1-3.1-2.2-2.6-.3-5.5 1.6-8.8 5.9L7.9 111.9c-2 2.6-3.3 5-3.9 7.2-.3 1.3-.4 2.5-.2 3.5.3 1.4 1 2.6 2.2 3.5 1.2.8 2.8 1.4 4.8 1.6l98.1 11.1c1.9.2 3.7.1 5.3-.5 1.6-.6 2.9-1.5 3.9-2.8.7-.9 1.2-2 1.6-3.4.6-2.1.7-4.7.2-7.6L100.2 12"/><path fill="#FFD400" d="m93.5 10.8.7.8c.4.8.7 1.8.9 3L114.7 127c.3 2 .3 3.5-.1 4.8-.7.7-2.1.9-4 .7l-98.1-11.1c-2.1-.3-3.2-.9-3.4-1.8.4-1.1 1.2-2.5 2.4-4.1L89.9 14.1l2.5-2.6 1.1-.7"/><path fill="#8C6E00" d="M103.9 10.1c-.9-4.9-2.7-8-5.3-9.4l2.8 1.3c2.7 1.4 4.5 4.6 5.3 9.5l19.6 112.4c1.1 6.3.1 11.4-3 15.5-3.1 4-7.4 5.7-12.9 5.1l-98-11.1c-1.7-.2-3.3-.6-4.6-1.3L5.4 131c1.2.6 2.6.9 4.2 1.1l98 11.1c5.4.6 9.7-1.1 12.8-5.1 3.2-4.1 4.2-9.2 3.1-15.5L103.9 10.1"/><path fill="#212938" d="m110.9 128.2-1.3.2-28.2-3.1c-.5 0-.9-.1-1-.4l.4-.8 4.4-3.4c1.3-.8 2.5-2 3.6-3.4l2.5-3.5c.6-.6 2.1-1.5 4.6-2.6 2.3-1 4-2.1 5.1-3.4 1.4-1.7 3.4-2.8 5.9-3.2l3.9 22.4.1 1.2"/><path fill="#212938" d="M91.6 120.7c-2-1.8-3.7-4.3-5-7.5l11.8-4.6c1.3 3.2 1.8 6.2 1.6 8.9-.3 2.8-1.2 4.5-2.8 5.1-1.7.6-3.5-.1-5.6-1.9"/><path fill="none" stroke="#212938" stroke-width="2" stroke-linecap="round" stroke-linejoin="round" stroke-miterlimit="3" d="m79.7 76.5 14.6 39.2"/></svg>